<svg width="20" height="20" viewBox="0 0 20 20" fill="none" xmlns="http://www.w3.org/2000/svg">
<path d="M13.3131 2C13.2659 2.243 13.2423 2.49001 13.2428 2.73756C13.2428 4.95855 15.0459 6.75902 17.2702 6.75902C17.5151 6.75782 17.7594 6.73431 18 6.68878V14.6615C18 18.0156 16.0215 20 12.6624 20H5.34636C1.97851 20 0 18.0156 0 14.6615V7.3561C0 4.00195 1.97851 2 5.34636 2H13.3131ZM13.434 7.99426L13.3167 8.00159C13.1211 8.02972 12.9453 8.1358 12.8295 8.29561L10.4201 11.3951L7.6766 9.23512C7.51997 9.11309 7.32071 9.05921 7.12381 9.08565C6.92691 9.11208 6.74898 9.2166 6.63019 9.37561L3.67562 13.1863C3.57177 13.3158 3.51586 13.4771 3.51734 13.6429L3.51994 13.7533C3.54858 14.0433 3.74748 14.2939 4.03238 14.3838C4.35288 14.485 4.70138 14.3573 4.88031 14.0732L7.35125 10.8771L10.0948 13.0283C10.2508 13.1541 10.4514 13.2111 10.6504 13.1863C10.8494 13.1615 11.0297 13.0569 11.15 12.8966L14.0078 9.20878V9.19122C14.2525 8.86247 14.1901 8.39889 13.8671 8.14634C13.7108 8.02568 13.5122 7.97346 13.3167 8.00159L13.434 7.99426Z" fill="url(#paint0_linear)"/>
<path opacity="0.4" d="M17.5 5C18.8807 5 20 3.88071 20 2.5C20 1.11929 18.8807 0 17.5 0C16.1193 0 15 1.11929 15 2.5C15 3.88071 16.1193 5 17.5 5Z" fill="url(#paint1_linear)"/>
<defs>
<linearGradient id="paint0_linear" x1="0" y1="2" x2="21.6987" y2="11.8618" gradientUnits="userSpaceOnUse">
<stop stop-color="#66738F"/>
<stop offset="1" stop-color="#A0A3BD"/>
</linearGradient>
<linearGradient id="paint1_linear" x1="15" y1="0" x2="21.0274" y2="2.73939" gradientUnits="userSpaceOnUse">
<stop stop-color="#66738F"/>
<stop offset="1" stop-color="#A0A3BD"/>
</linearGradient>
</defs>
</svg>
