<svg width="18" height="20" viewBox="0 0 18 20" fill="none" xmlns="http://www.w3.org/2000/svg">
<path d="M13.0505 16.09C12.596 16.08 12.2305 15.7 12.2305 15.24C12.2206 14.78 12.5862 14.401 13.0406 14.391H13.0505C13.5148 14.391 13.8902 14.771 13.8902 15.24C13.8902 15.71 13.5148 16.09 13.0505 16.09ZM9.01976 12.41C8.56531 12.431 8.1899 12.07 8.17014 11.611C8.17014 11.151 8.5258 10.771 8.98024 10.75C9.42481 10.75 9.79034 11.101 9.80022 11.55C9.81998 12.011 9.46432 12.391 9.01976 12.41ZM9.01976 16.04C8.56531 16.061 8.1899 15.7 8.17014 15.24C8.17014 14.78 8.5258 14.401 8.98024 14.38C9.42481 14.38 9.79034 14.731 9.80022 15.181C9.81998 15.641 9.46432 16.021 9.01976 16.04ZM4.95939 12.41C4.50494 12.431 4.12953 12.07 4.10977 11.611C4.10977 11.151 4.46542 10.771 4.91987 10.75C5.36443 10.75 5.72997 11.101 5.73985 11.55C5.7596 12.011 5.40395 12.391 4.95939 12.41ZM4.94951 16.04C4.49506 16.061 4.11965 15.7 4.09989 15.24C4.09989 14.78 4.45554 14.401 4.90999 14.38C5.35456 14.38 5.72009 14.731 5.72997 15.181C5.74973 15.641 5.39407 16.021 4.94951 16.04ZM12.2404 11.601C12.2404 11.141 12.596 10.771 13.0505 10.761C13.4951 10.761 13.8507 11.12 13.8705 11.561C13.8804 12.021 13.5247 12.401 13.0801 12.41C12.6257 12.42 12.2503 12.07 12.2404 11.611V11.601ZM0 7.25699V14.87C0 18.03 1.99561 20 5.12733 20H12.8628C16.0241 20 18 18.07 18 14.931V7.25699H0Z" fill="url(#paint0_linear)"/>
<path opacity="0.4" d="M0.00341797 7.2569C0.016261 6.6699 0.0656573 5.5049 0.158522 5.1299C0.632726 3.0209 2.24304 1.6809 4.54491 1.4899H13.456C15.7381 1.6909 17.3682 3.0399 17.8424 5.1299C17.9343 5.4949 17.9837 6.6689 17.9965 7.2569H0.00341797Z" fill="url(#paint1_linear)"/>
<path d="M5.30489 4.59C5.73958 4.59 6.06559 4.261 6.06559 3.82V0.771C6.06559 0.33 5.73958 0 5.30489 0C4.8702 0 4.54419 0.33 4.54419 0.771V3.82C4.54419 4.261 4.8702 4.59 5.30489 4.59Z" fill="url(#paint2_linear)"/>
<path d="M12.6949 4.59C13.1197 4.59 13.4556 4.261 13.4556 3.82V0.771C13.4556 0.33 13.1197 0 12.6949 0C12.2602 0 11.9342 0.33 11.9342 0.771V3.82C11.9342 4.261 12.2602 4.59 12.6949 4.59Z" fill="url(#paint3_linear)"/>
<defs>
<linearGradient id="paint0_linear" x1="0" y1="7.25699" x2="18.5398" y2="19.1592" gradientUnits="userSpaceOnUse">
<stop stop-color="#6D07CB"/>
<stop offset="1" stop-color="#EFADFF"/>
</linearGradient>
<linearGradient id="paint1_linear" x1="0.00341797" y1="1.4899" x2="8.69587" y2="13.8158" gradientUnits="userSpaceOnUse">
<stop stop-color="#6D07CB"/>
<stop offset="1" stop-color="#EFADFF"/>
</linearGradient>
<linearGradient id="paint2_linear" x1="4.54419" y1="0" x2="6.70795" y2="0.325959" gradientUnits="userSpaceOnUse">
<stop stop-color="#6D07CB"/>
<stop offset="1" stop-color="#EFADFF"/>
</linearGradient>
<linearGradient id="paint3_linear" x1="11.9342" y1="0" x2="14.098" y2="0.325959" gradientUnits="userSpaceOnUse">
<stop stop-color="#6D07CB"/>
<stop offset="1" stop-color="#EFADFF"/>
</linearGradient>
</defs>
</svg>
