<svg width="20" height="20" viewBox="0 0 20 20" fill="none" xmlns="http://www.w3.org/2000/svg">
<path opacity="0.4" d="M10.02 0C4.21 0 0 4.74 0 10C0 11.68 0.49 13.41 1.35 14.99C1.51 15.25 1.53 15.58 1.42 15.89L0.75 18.13C0.6 18.67 1.06 19.07 1.57 18.91L3.59 18.31C4.14 18.13 4.57 18.36 5.081 18.67C6.541 19.53 8.36 19.97 10 19.97C14.96 19.97 20 16.14 20 9.97C20 4.65 15.7 0 10.02 0Z" fill="url(#paint0_linear)"/>
<path d="M5.37009 8.7301C6.08009 8.7301 6.65009 9.3001 6.65009 10.0101C6.65009 10.7101 6.08009 11.2801 5.37009 11.2901C4.67009 11.2901 4.09009 10.7101 4.09009 10.0101C4.09009 9.3001 4.66009 8.7301 5.37009 8.7301ZM9.98049 8.7301C10.6905 8.7301 11.2605 9.3001 11.2605 10.0101C11.2605 10.7101 10.6905 11.2901 9.98049 11.2901C9.27049 11.2801 8.70049 10.7101 8.70049 10.0001C8.70049 9.3001 9.28049 8.7201 9.98049 8.7301ZM14.5903 8.7301C15.3003 8.7301 15.8703 9.3001 15.8703 10.0101C15.8703 10.7101 15.3003 11.2901 14.5903 11.2901C13.8803 11.2901 13.3103 10.7101 13.3103 10.0101C13.3103 9.3001 13.8803 8.7301 14.5903 8.7301Z" fill="url(#paint1_linear)"/>
<defs>
<linearGradient id="paint0_linear" x1="0" y1="0" x2="24.0973" y2="10.9684" gradientUnits="userSpaceOnUse">
<stop stop-color="#66738F"/>
<stop offset="1" stop-color="#A0A3BD"/>
</linearGradient>
<linearGradient id="paint1_linear" x1="4.09009" y1="8.72997" x2="7.27874" y2="15.3984" gradientUnits="userSpaceOnUse">
<stop stop-color="#66738F"/>
<stop offset="1" stop-color="#A0A3BD"/>
</linearGradient>
</defs>
</svg>
