<svg width="18" height="20" viewBox="0 0 18 20" fill="none" xmlns="http://www.w3.org/2000/svg">
<path opacity="0.4" d="M13.191 0H4.81C1.77 0 0 1.78 0 4.83V15.16C0 18.26 1.77 20 4.81 20H13.191C16.28 20 18 18.26 18 15.16V4.83C18 1.78 16.28 0 13.191 0Z" fill="url(#paint0_linear)"/>
<path d="M5.07996 13.74H12.92C13.319 13.78 13.62 14.12 13.62 14.53C13.62 14.929 13.319 15.27 12.92 15.31H5.07996C4.77996 15.35 4.48996 15.2 4.32996 14.95C4.16996 14.69 4.16996 14.36 4.32996 14.11C4.48996 13.85 4.77996 13.71 5.07996 13.74ZM12.92 9.179C13.35 9.179 13.7 9.53 13.7 9.96C13.7 10.39 13.35 10.74 12.92 10.74H5.07996C4.64896 10.74 4.29996 10.39 4.29996 9.96C4.29996 9.53 4.64896 9.179 5.07996 9.179H12.92ZM8.06896 4.65C8.49996 4.65 8.84996 5 8.84996 5.429C8.84996 5.87 8.49996 6.22 8.06896 6.22H5.07996C4.64896 6.22 4.29996 5.87 4.29996 5.44C4.29996 5.01 4.64896 4.66 5.07996 4.66V4.65H8.06896Z" fill="url(#paint1_linear)"/>
<defs>
<linearGradient id="paint0_linear" x1="0" y1="0" x2="22.4282" y2="9.17403" gradientUnits="userSpaceOnUse">
<stop stop-color="#66738F"/>
<stop offset="1" stop-color="#A0A3BD"/>
</linearGradient>
<linearGradient id="paint1_linear" x1="4.20996" y1="4.65" x2="16.0733" y2="9.44708" gradientUnits="userSpaceOnUse">
<stop stop-color="#66738F"/>
<stop offset="1" stop-color="#A0A3BD"/>
</linearGradient>
</defs>
</svg>
