<svg width="20" height="20" viewBox="0 0 20 20" fill="none" xmlns="http://www.w3.org/2000/svg">
<path opacity="0.4" d="M14.8843 3.11485H11.9413C11.2081 3.11969 10.512 2.79355 10.0474 2.22751L9.0782 0.887624C8.62137 0.316613 7.9253 -0.0110553 7.19321 0.000284957H5.11261C1.37819 0.000284957 8.05893e-07 2.19201 8.05893e-07 5.91884V9.94736C-0.00463537 10.3904 19.9956 10.3898 19.9969 9.94736V8.77607C20.0147 5.04924 18.6721 3.11485 14.8843 3.11485Z" fill="url(#paint0_linear)"/>
<path d="M14.8754 3.11486C16.1802 3.01395 17.4753 3.40674 18.5032 4.21516C18.6215 4.31554 18.7316 4.42534 18.8321 4.54347C19.1521 4.91755 19.3993 5.34787 19.5612 5.81237C19.8798 6.76705 20.0273 7.7703 19.9969 8.77608V14.0291C19.9956 14.4716 19.963 14.9134 19.8991 15.3513C19.7775 16.124 19.5057 16.8655 19.0989 17.5341C18.9119 17.8571 18.6849 18.1552 18.4231 18.4215C17.2383 19.5089 15.665 20.0749 14.0574 19.992H5.93061C4.32049 20.0743 2.74461 19.5085 1.55601 18.4215C1.2974 18.1547 1.07337 17.8566 0.889148 17.5341C0.48475 16.866 0.218689 16.1238 0.106699 15.3513C0.0354885 14.9141 0 14.472 0 14.0291V8.77608C0 8.33736 0.0235723 7.89896 0.0711327 7.46282C0.0978071 7.25873 0.160047 7.06352 0.160047 6.8683C0.250306 6.34198 0.414958 5.8311 0.649078 5.35095C1.34261 3.8691 2.76525 3.11486 5.09481 3.11486H14.8754ZM15.1155 11.8906H4.97033C4.51365 11.8906 4.14343 12.2601 4.14343 12.7159C4.14343 13.1716 4.51365 13.5411 4.97033 13.5411H15.0533C15.2741 13.5507 15.4896 13.4716 15.6517 13.3216C15.8137 13.1715 15.9088 12.963 15.9157 12.7425C15.9282 12.5487 15.8644 12.3577 15.7379 12.2101C15.5924 12.0118 15.3618 11.8934 15.1155 11.8906Z" fill="url(#paint1_linear)"/>
<defs>
<linearGradient id="paint0_linear" x1="0" y1="0" x2="16.3246" y2="14.4332" gradientUnits="userSpaceOnUse">
<stop stop-color="#66738F"/>
<stop offset="1" stop-color="#A0A3BD"/>
</linearGradient>
<linearGradient id="paint1_linear" x1="0" y1="3.0993" x2="22.5636" y2="15.2352" gradientUnits="userSpaceOnUse">
<stop stop-color="#66738F"/>
<stop offset="1" stop-color="#A0A3BD"/>
</linearGradient>
</defs>
</svg>
