<svg width="18" height="20" viewBox="0 0 18 20" fill="none" xmlns="http://www.w3.org/2000/svg">
<path d="M12.7326 0C13.0831 0 13.3728 0.262469 13.4186 0.603004L13.4249 0.697674L13.425 1.48626C16.2681 1.68121 18.009 3.51888 18 6.48579V14.9744C18 18.1193 16.0453 20 12.9036 20H5.09625C1.95834 20 0 18.0872 0 14.9041V6.48579C0 3.51995 1.74651 1.68177 4.58344 1.48635L4.58353 0.697674C4.58353 0.312359 4.89348 0 5.27583 0C5.62632 0 5.91598 0.262469 5.96182 0.603004L5.96814 0.697674L5.968 1.469H12.04L12.0403 0.697674C12.0403 0.312359 12.3503 0 12.7326 0ZM16.615 8.283H1.384L1.38461 14.9041C1.38461 17.2292 2.62916 18.5198 4.86897 18.6006L5.09625 18.6047H12.9036C15.2946 18.6047 16.6154 17.3338 16.6154 14.9744L16.615 8.283ZM13.1089 14.136C13.4912 14.136 13.8012 14.4484 13.8012 14.8337C13.8012 15.1869 13.5407 15.4788 13.2028 15.525L13.1089 15.5314C12.718 15.5314 12.408 15.219 12.408 14.8337C12.408 14.4805 12.6685 14.1886 13.0064 14.1424L13.1089 14.136ZM9.01278 14.136C9.39513 14.136 9.70508 14.4484 9.70508 14.8337C9.70508 15.1869 9.44463 15.4788 9.10672 15.525L9.01278 15.5314C8.62188 15.5314 8.31192 15.219 8.31192 14.8337C8.31192 14.4805 8.57237 14.1886 8.91028 14.1424L9.01278 14.136ZM4.90812 14.136C5.29047 14.136 5.60043 14.4484 5.60043 14.8337C5.60043 15.1869 5.33998 15.4788 5.00207 15.525L4.89957 15.5314C4.51722 15.5314 4.20727 15.219 4.20727 14.8337C4.20727 14.4805 4.46772 14.1886 4.80563 14.1424L4.90812 14.136ZM13.1089 10.5206C13.4912 10.5206 13.8012 10.833 13.8012 11.2183C13.8012 11.5715 13.5407 11.8634 13.2028 11.9096L13.1089 11.916C12.718 11.916 12.408 11.6036 12.408 11.2183C12.408 10.8651 12.6685 10.5732 13.0064 10.527L13.1089 10.5206ZM9.01278 10.5206C9.39513 10.5206 9.70508 10.833 9.70508 11.2183C9.70508 11.5715 9.44463 11.8634 9.10672 11.9096L9.01278 11.916C8.62188 11.916 8.31192 11.6036 8.31192 11.2183C8.31192 10.8651 8.57237 10.5732 8.91028 10.527L9.01278 10.5206ZM4.90812 10.5206C5.29047 10.5206 5.60043 10.833 5.60043 11.2183C5.60043 11.5715 5.33998 11.8634 5.00207 11.9096L4.89957 11.916C4.51722 11.916 4.20727 11.6036 4.20727 11.2183C4.20727 10.8651 4.46772 10.5732 4.80563 10.527L4.90812 10.5206ZM12.04 2.864H5.968L5.96814 3.75887C5.96814 4.14418 5.65818 4.45654 5.27583 4.45654C4.92535 4.45654 4.63569 4.19407 4.58985 3.85354L4.58353 3.75887L4.58255 2.88521C2.51889 3.05837 1.38461 4.3066 1.38461 6.48579L1.384 6.887H16.615L16.6154 6.48365C16.622 4.30275 15.4935 3.05711 13.4249 2.88499L13.4249 3.75887C13.4249 4.14418 13.115 4.45654 12.7326 4.45654C12.3821 4.45654 12.0925 4.19407 12.0466 3.85354L12.0403 3.75887L12.04 2.864Z" fill="#6E7191"/>
</svg>
