<svg width="20" height="18" viewBox="0 0 20 18" fill="none" xmlns="http://www.w3.org/2000/svg">
<path d="M14.5138 0C17.96 0 19.9964 1.97862 19.9964 5.33786V5.37513H15.7618C13.7911 5.37859 12.1947 6.93514 12.1911 8.85657C12.1884 10.7823 13.7867 12.3458 15.7618 12.3484H20V12.6543C20 16.0136 17.9636 18 14.5173 18H5.48356C2.03644 18 0 16.0136 0 12.6543V5.33786C0 1.97862 2.03644 0 5.48356 0H14.5138ZM10.3831 3.8749H4.73956C4.32 3.87664 3.97956 4.20858 3.97777 4.61852C3.976 5.03019 4.31733 5.36559 4.73956 5.36733H10.3902C10.8124 5.36559 11.1538 5.03019 11.152 4.61765C11.1502 4.20598 10.8053 3.87318 10.3831 3.8749Z" fill="url(#paint0_linear)"/>
<path opacity="0.4" d="M14.0374 9.29664C14.2465 10.2478 15.0805 10.917 16.0326 10.8996H19.2825C19.6787 10.8996 20 10.5716 20 10.166V7.63447C19.9992 7.2298 19.6787 6.90085 19.2825 6.89997H15.9561C14.8731 6.90346 13.9983 7.80242 14 8.91025C14 9.03992 14.0128 9.16959 14.0374 9.29664Z" fill="url(#paint1_linear)"/>
<path d="M16 9.89997C16.5523 9.89997 17 9.45226 17 8.89997C17 8.34769 16.5523 7.89997 16 7.89997C15.4477 7.89997 15 8.34769 15 8.89997C15 9.45226 15.4477 9.89997 16 9.89997Z" fill="url(#paint2_linear)"/>
<defs>
<linearGradient id="paint0_linear" x1="0" y1="0" x2="23.1789" y2="11.705" gradientUnits="userSpaceOnUse">
<stop stop-color="#66738F"/>
<stop offset="1" stop-color="#A0A3BD"/>
</linearGradient>
<linearGradient id="paint1_linear" x1="14" y1="6.89997" x2="19.9579" y2="10.9617" gradientUnits="userSpaceOnUse">
<stop stop-color="#66738F"/>
<stop offset="1" stop-color="#A0A3BD"/>
</linearGradient>
<linearGradient id="paint2_linear" x1="15" y1="7.89997" x2="17.411" y2="8.99573" gradientUnits="userSpaceOnUse">
<stop stop-color="#66738F"/>
<stop offset="1" stop-color="#A0A3BD"/>
</linearGradient>
</defs>
</svg>
